<?xml version="1.0" encoding="utf-8"?>
<!-- Generator: Adobe Illustrator 18.1.1, SVG Export Plug-In . SVG Version: 6.00 Build 0)  -->
<!DOCTYPE svg PUBLIC "-//W3C//DTD SVG 1.1//EN" "http://www.w3.org/Graphics/SVG/1.1/DTD/svg11.dtd">
<svg version="1.1" id="Capa_1" xmlns="http://www.w3.org/2000/svg" xmlns:xlink="http://www.w3.org/1999/xlink" x="0px" y="0px"
	 viewBox="156 -156 612 612" enable-background="new 156 -156 612 612" xml:space="preserve">
<g>
	<g id="backspace">
		<path fill="#848484" d="M717-74.5H350.5c-17.9,0-30.6,7.7-40.8,22.9L156,150l153.7,201.5c10.2,12.8,22.9,23,40.8,23H717
			c28,0,51-23,51-51v-347C768-51.6,745-74.5,717-74.5z M640.5,241.8l-35.7,35.7L513,185.7l-91.8,91.8l-35.7-35.7l91.8-91.8
			l-91.8-91.8l35.7-35.7l91.8,91.8l91.8-91.8l35.7,35.7L548.7,150L640.5,241.8z"/>
	</g>
</g>
</svg>
