<?xml version="1.0" encoding="utf-8"?>
<!-- Generator: Adobe Illustrator 18.1.1, SVG Export Plug-In . SVG Version: 6.00 Build 0)  -->
<!DOCTYPE svg PUBLIC "-//W3C//DTD SVG 1.1//EN" "http://www.w3.org/Graphics/SVG/1.1/DTD/svg11.dtd">
<svg version="1.1"
	 id="svg4172" sodipodi:docname="New document 16" inkscape:version="0.48.0 r9654" xmlns:cc="http://creativecommons.org/ns#" xmlns:dc="http://purl.org/dc/elements/1.1/" xmlns:sodipodi="http://sodipodi.sourceforge.net/DTD/sodipodi-0.dtd" xmlns:svg="http://www.w3.org/2000/svg" xmlns:rdf="http://www.w3.org/1999/02/22-rdf-syntax-ns#" xmlns:inkscape="http://www.inkscape.org/namespaces/inkscape"
	 xmlns="http://www.w3.org/2000/svg" xmlns:xlink="http://www.w3.org/1999/xlink" x="0px" y="0px" viewBox="-220 338.3 80 40"
	 enable-background="new -220 338.3 80 40" xml:space="preserve">
<sodipodi:namedview  inkscape:window-maximized="0" inkscape:window-y="20" inkscape:window-x="81" inkscape:window-height="823" inkscape:current-layer="layer1" inkscape:document-units="px" inkscape:pageshadow="2" inkscape:pageopacity="0.0" inkscape:guide-bbox="true" inkscape:window-width="1324" inkscape:cy="100" inkscape:cx="200" pagecolor="#ffffff" borderopacity="1.0" bordercolor="#666666" id="base" inkscape:zoom="2.0925" showgrid="false" showguides="true">
	<sodipodi:guide  id="guide5396" orientation="1,0" position="399.66942,535.53719"></sodipodi:guide>
	<sodipodi:guide  id="guide5398" orientation="0,1" position="293.55372,398.67769"></sodipodi:guide>
</sodipodi:namedview>
<g>
	<path d="M-192.1,350c-1.4-1.4-3.2-2.1-5.1-2.1c-1.9,0-3.8,0.8-5.1,2.1c-2.4,2.4-2.8,6.1-1.1,8.9l-5.9,5.9c-0.4,0.3-0.7,0.9-0.7,1.4
		c0,1,0.8,1.9,1.9,1.9c0.7,0,1.3-0.4,1.6-0.9l5.7-5.7c1.1,0.6,2.3,1,3.6,1c1.9,0,3.8-0.8,5.1-2.1c1.4-1.4,2.1-3.2,2.1-5.1
		C-190,353.1-190.8,351.3-192.1,350z M-194.8,357.5c-0.7,0.7-1.5,1-2.5,1c-0.9,0-1.8-0.4-2.5-1c-1.4-1.4-1.4-3.6,0-4.9
		c0.7-0.7,1.5-1,2.5-1c0.9,0,1.8,0.4,2.5,1c0.7,0.7,1,1.5,1,2.5C-193.8,356-194.1,356.9-194.8,357.5z"/>
	
		<path id="path5343_1_" sodipodi:ry="73.584366" sodipodi:rx="73.584366" sodipodi:cx="329.65796" sodipodi:cy="437.1969" sodipodi:type="arc" fill="#FFFFFF" d="
		M-193.5,358.9c-2.1,2.1-5.5,2.1-7.6,0c-2.1-2.1-2.1-5.5,0-7.6c2.1-2.1,5.5-2.1,7.6,0S-191.4,356.8-193.5,358.9z"/>
	<circle fill="#FFFFFF" cx="-197.3" cy="355.1" r="5.2"/>
	<g>
		<path id="path5345_1_" sodipodi:nodetypes="ccccc" inkscape:connector-curvature="0" d="M-199.8,354.3v1.5h5.1v-1.5H-199.8z"/>
		<path d="M-194.7,355.8h-5.2v-1.5h5.2V355.8z M-199.8,355.8h5.1v-1.4h-5.1V355.8z"/>
	</g>
</g>
<g>
	<path d="M-152.1,350c-1.4-1.4-3.2-2.1-5.1-2.1c-1.9,0-3.8,0.8-5.1,2.1c-2.4,2.4-2.8,6.1-1.1,8.9l-5.9,5.9c-0.4,0.3-0.7,0.9-0.7,1.4
		c0,1,0.8,1.9,1.9,1.9c0.7,0,1.3-0.4,1.6-0.9l5.7-5.7c1.1,0.6,2.3,1,3.6,1c1.9,0,3.8-0.8,5.1-2.1c1.4-1.4,2.1-3.2,2.1-5.1
		C-150,353.1-150.8,351.3-152.1,350z M-154.8,357.5c-0.7,0.7-1.5,1-2.5,1c-0.9,0-1.8-0.4-2.5-1c-1.4-1.4-1.4-3.6,0-4.9
		c0.7-0.7,1.5-1,2.5-1c0.9,0,1.8,0.4,2.5,1c0.7,0.7,1,1.5,1,2.5C-153.8,356-154.1,356.9-154.8,357.5z"/>
	
		<path id="path5343_2_" sodipodi:ry="73.584366" sodipodi:rx="73.584366" sodipodi:cx="329.65796" sodipodi:cy="437.1969" sodipodi:type="arc" fill="#FFFFFF" d="
		M-153.5,358.9c-2.1,2.1-5.5,2.1-7.6,0c-2.1-2.1-2.1-5.5,0-7.6c2.1-2.1,5.5-2.1,7.6,0S-151.4,356.8-153.5,358.9z"/>
	<circle fill="#FFFFFF" cx="-157.3" cy="355.1" r="5.2"/>
	<g>
		<path id="rect5335_2_" inkscape:connector-curvature="0" d="M-158,352.6v1.8h-1.8v1.5h1.8v1.8h1.5v-1.8h1.8v-1.5h-1.8v-1.8H-158z"
			/>
		<path d="M-156.5,357.7h-1.5v-1.8h-1.8v-1.5h1.8v-1.8h1.5v1.8h1.8v1.5h-1.8V357.7z M-158,357.7h1.4v-1.8h1.8v-1.4h-1.8v-1.8h-1.4
			v1.8h-1.8v1.4h1.8V357.7z"/>
	</g>
</g>
</svg>
